<?xml version="1.0" standalone="no"?>
<!DOCTYPE svg PUBLIC "-//W3C//DTD SVG 20010904//EN"
 "http://www.w3.org/TR/2001/REC-SVG-20010904/DTD/svg10.dtd">
<svg version="1.0" xmlns="http://www.w3.org/2000/svg"
 width="50.000000pt" height="50.000000pt" viewBox="0 0 50.000000 50.000000"
 preserveAspectRatio="xMidYMid meet">
<metadata>
Created by potrace 1.11, written by Peter Selinger 2001-2013
</metadata>
<g transform="translate(0.000000,50.000000) scale(0.100000,-0.100000)"
fill="#000000" stroke="none">
<path d="M20 480 c-19 -19 -20 -33 -20 -200 l0 -180 140 0 140 0 0 54 c0 45
-3 54 -20 59 -15 4 -20 14 -20 36 l0 31 -99 0 c-60 0 -102 4 -106 11 -4 6 -9
47 -13 91 -4 71 -3 83 13 95 23 16 395 19 426 3 16 -9 19 -22 19 -80 0 -38 -4
-80 -10 -95 -9 -24 -14 -25 -57 -22 -27 3 -36 2 -20 0 28 -4 31 -12 21 -50 -4
-16 -14 -23 -30 -23 -22 0 -24 -4 -24 -55 l0 -55 70 0 70 0 0 180 c0 167 -1
181 -20 200 -19 19 -33 20 -230 20 -197 0 -211 -1 -230 -20z"/>
<path d="M272 68 l-2 -28 -130 0 c-127 0 -153 -7 -111 -30 26 -13 416 -13 442
0 10 6 19 16 19 22 0 8 -30 9 -104 4 l-105 -7 -4 33 c-3 29 -4 30 -5 6z"/>
</g>
</svg>
