<?xml version="1.0" standalone="no"?>
<!DOCTYPE svg PUBLIC "-//W3C//DTD SVG 20010904//EN"
 "http://www.w3.org/TR/2001/REC-SVG-20010904/DTD/svg10.dtd">
<svg version="1.0" xmlns="http://www.w3.org/2000/svg"
 width="221.000000pt" height="240.000000pt" viewBox="0 0 221.000000 240.000000"
 preserveAspectRatio="xMidYMid meet">
<metadata>
Created by potrace 1.11, written by Peter Selinger 2001-2013
</metadata>
<g transform="translate(0.000000,240.000000) scale(0.100000,-0.100000)"
fill="#000000" stroke="none">
<path d="M1010 2334 c-14 -2 -56 -9 -95 -15 -344 -56 -664 -324 -785 -658 -50
-138 -63 -212 -63 -366 -1 -150 17 -250 67 -378 13 -34 26 -79 29 -101 10 -65
61 -158 120 -218 l56 -56 -20 -38 c-34 -69 -17 -137 44 -174 40 -25 127 -26
192 -4 l46 15 71 -66 c73 -70 180 -145 206 -145 20 0 8 44 -30 103 -35 54 -29
78 8 32 44 -54 75 -85 86 -85 10 0 7 36 -6 70 -5 13 10 15 111 12 65 -2 119
-5 121 -7 1 -1 -7 -23 -19 -50 -29 -66 -11 -81 29 -23 37 52 72 91 79 85 2 -3
-3 -29 -11 -58 -17 -56 -22 -164 -7 -155 5 3 19 32 32 63 56 139 132 238 84
109 -19 -51 -25 -86 -25 -146 0 -44 3 -80 8 -80 4 0 31 53 60 118 61 136 94
184 113 164 20 -19 232 -16 299 4 97 29 148 62 189 123 68 101 70 106 64 218
-6 110 -2 143 24 168 26 27 75 241 67 295 -3 25 -7 113 -9 195 -2 89 -9 178
-18 220 -92 414 -403 725 -812 811 -71 15 -259 26 -305 18z m94 -440 c53 -19
86 -18 147 6 39 16 62 19 102 14 48 -6 58 -13 123 -78 75 -75 111 -134 138
-227 8 -31 31 -75 50 -100 20 -24 32 -47 28 -51 -4 -4 -36 -8 -71 -10 -43 -2
-66 -7 -69 -17 -6 -18 145 -12 157 7 31 50 258 21 278 -35 3 -10 14 -27 24
-38 42 -48 90 -169 59 -150 -16 10 -11 -8 10 -35 11 -14 20 -39 20 -55 0 -17
4 -44 9 -61 6 -21 4 -43 -5 -69 -7 -21 -10 -43 -7 -48 3 -4 -5 -20 -18 -33
-17 -18 -20 -27 -11 -32 8 -6 6 -18 -9 -49 -21 -42 -59 -84 -59 -66 0 7 -15 7
-45 -2 -79 -24 -201 -38 -234 -27 -29 10 -29 10 -19 -19 6 -18 19 -31 34 -35
40 -10 64 -3 252 73 22 9 13 -15 -20 -52 -64 -73 -153 -97 -288 -76 -112 18
-126 29 -222 178 l-27 41 32 -9 c58 -16 84 -11 109 22 13 17 33 41 45 53 35
35 55 103 57 186 1 66 -3 81 -29 129 -48 87 -203 179 -255 151 -29 -15 -14
-33 22 -26 47 9 83 -17 128 -93 34 -57 42 -81 47 -139 9 -109 -31 -186 -112
-218 -76 -28 -119 7 -140 115 -10 49 -9 59 8 88 19 33 19 33 -2 76 -20 41 -66
76 -80 61 -3 -4 1 -9 9 -12 27 -9 70 -63 70 -87 0 -27 -43 -65 -72 -65 -27 0
-68 29 -68 49 0 9 -8 33 -19 53 -18 37 -18 37 3 58 12 11 27 20 33 20 5 0 18
9 28 20 10 11 13 20 7 20 -7 0 -12 -4 -12 -9 0 -5 -26 -8 -59 -5 -43 2 -68 -2
-96 -16 -20 -10 -43 -16 -51 -13 -17 6 -17 9 -4 33 22 40 137 52 123 12 -6
-16 -5 -15 15 1 13 12 32 18 54 15 18 -1 35 2 38 7 3 6 -8 11 -25 12 -69 6
-182 27 -203 38 -19 9 -38 7 -102 -11 -102 -30 -171 -65 -227 -117 -61 -56
-83 -105 -83 -189 0 -142 44 -239 131 -287 42 -23 49 -24 86 -13 45 13 130 84
152 126 8 14 18 26 22 26 5 0 27 -34 50 -76 54 -99 74 -117 118 -110 41 6 154
78 185 118 l22 29 52 -85 c29 -47 77 -111 107 -142 30 -31 55 -58 55 -61 0 -2
-9 -1 -20 2 -22 7 -126 -25 -177 -55 -18 -11 -33 -15 -33 -10 0 5 -34 14 -75
21 -41 6 -75 15 -75 19 0 19 98 70 133 70 44 0 49 16 7 25 l-30 7 30 25 c17
13 30 31 30 39 0 19 -3 18 -60 -17 -28 -17 -70 -33 -93 -36 -63 -8 -158 -8
-194 0 -26 5 -33 3 -33 -8 0 -9 11 -21 25 -27 l25 -11 -28 -25 -27 -24 25 7
c38 11 66 9 90 -8 21 -14 20 -15 -25 -42 -44 -25 -51 -26 -133 -20 -62 4 -83
3 -72 -4 8 -6 11 -11 5 -11 -5 1 -18 7 -28 15 -11 7 -25 11 -33 8 -26 -10 -14
13 29 58 45 48 122 188 115 210 -3 8 -20 -9 -41 -43 -49 -76 -141 -173 -191
-203 -26 -15 -65 -26 -108 -31 -63 -6 -68 -5 -111 25 -32 24 -50 31 -69 26
-16 -4 -29 -1 -37 9 -7 9 -17 13 -22 10 -5 -3 -24 10 -43 28 -18 18 -48 43
-65 56 -30 22 -31 27 -31 94 l0 71 20 -26 c41 -52 124 -56 150 -7 11 20 10 21
-9 11 -43 -23 -89 -13 -135 29 -40 37 -43 38 -38 15 3 -19 0 -25 -13 -25 -16
0 -17 8 -11 97 4 54 9 108 12 120 5 19 2 23 -19 23 -24 0 -24 2 -16 38 29 129
104 244 186 283 54 26 147 30 236 11 57 -13 117 -9 117 8 0 9 -36 20 -71 20
-14 0 -28 2 -31 5 -2 3 -1 33 3 68 27 215 33 239 58 277 28 42 91 96 131 113
65 27 196 28 274 1z m-483 -289 c-6 -24 -11 -65 -11 -90 l0 -47 -42 7 c-31 4
-51 15 -71 38 l-27 31 46 40 c65 55 108 84 113 74 1 -5 -2 -29 -8 -53z m414
-259 c18 -13 18 -14 -3 -41 -12 -15 -22 -34 -22 -42 0 -15 0 -15 74 -34 36 -9
53 -20 67 -43 28 -46 24 -69 -20 -104 -53 -43 -85 -54 -116 -42 -46 17 -45 64
1 119 14 17 22 31 16 31 -21 0 -72 -82 -72 -116 0 -24 29 -54 52 -54 25 0 24
-4 -23 -70 -67 -96 -159 -145 -221 -119 -47 19 -67 79 -74 217 -6 111 -5 119
18 152 25 37 134 105 223 140 61 23 76 24 100 6z m76 -393 c16 -26 47 -30 55
-8 4 8 14 15 23 15 14 -1 14 -2 1 -13 -12 -9 -14 -21 -8 -52 10 -60 9 -75 -6
-75 -7 0 -19 7 -26 15 -7 9 -15 13 -18 10 -9 -9 41 -55 60 -55 16 0 16 -3 6
-20 -19 -29 -46 -35 -70 -14 -11 10 -38 56 -60 102 -39 80 -40 86 -28 122 15
47 42 57 51 20 3 -14 12 -35 20 -47z m889 -310 c0 -32 -3 -43 -9 -34 -7 11
-21 3 -65 -39 -74 -71 -124 -93 -200 -88 -48 4 -55 2 -41 -8 9 -7 35 -16 56
-19 22 -4 53 -14 70 -22 33 -17 73 -11 102 14 9 9 17 13 17 9 0 -13 -43 -46
-85 -66 -33 -16 -63 -20 -171 -20 -123 0 -132 1 -137 20 -3 11 -18 25 -33 32
-16 7 -44 27 -63 44 -40 38 -40 38 86 75 52 15 83 29 83 38 0 10 10 12 43 7
23 -3 74 -9 112 -12 83 -8 125 9 190 75 22 22 41 40 43 41 1 0 2 -21 2 -47z
m-1582 -103 c22 -24 93 -50 138 -50 19 0 34 -5 34 -11 0 -13 -63 -4 -125 17
l-40 13 35 -29 c87 -73 173 -66 320 23 l34 21 -19 -27 c-11 -14 -27 -27 -36
-27 -9 0 -28 -9 -42 -20 -14 -11 -29 -20 -33 -20 -5 0 -17 -11 -29 -25 -18
-22 -29 -25 -131 -31 -105 -6 -113 -5 -133 15 -24 24 -28 87 -10 140 13 37 13
37 37 11z m1086 -172 c8 -13 5 -21 -17 -38 -35 -28 -69 -87 -103 -180 -37
-103 -48 -110 -39 -26 7 70 33 142 81 224 27 46 57 54 78 20z"/>
<path d="M780 1675 c0 -14 6 -25 13 -25 8 0 22 -9 32 -20 18 -19 17 -20 -3
-20 -16 0 -24 -9 -31 -37 -16 -56 -13 -81 10 -104 16 -16 18 -23 8 -35 -21
-26 -4 -25 82 2 46 14 90 28 97 30 22 6 12 29 -21 44 -20 9 -48 39 -74 80 -39
59 -87 109 -105 110 -5 0 -8 -11 -8 -25z"/>
<path d="M1480 1690 c0 -5 -19 -29 -42 -53 -24 -24 -58 -62 -75 -84 -20 -26
-47 -46 -70 -53 -48 -16 -64 -30 -34 -30 13 0 63 -13 113 -30 49 -16 96 -30
104 -30 20 0 18 26 -3 34 -14 6 -14 9 6 23 21 14 23 22 19 74 -3 38 -11 65
-22 78 -18 20 -18 21 7 30 19 7 24 15 20 30 -5 21 -23 29 -23 11z"/>
<path d="M527 776 c-37 -14 -68 -34 -84 -54 -27 -35 -53 -40 -93 -17 -44 25
-40 16 18 -39 92 -86 122 -93 162 -37 11 16 38 36 60 45 22 9 40 18 40 20 0 2
7 20 15 41 l16 37 -32 -19 c-18 -10 -59 -44 -92 -75 -33 -32 -63 -58 -67 -58
-4 0 -21 5 -39 11 -31 11 -42 29 -18 29 7 0 29 16 48 36 18 19 48 41 64 48 23
10 82 60 64 55 -2 -1 -30 -11 -62 -23z"/>
</g>
</svg>
